<svg width="88" height="24" viewBox="0 0 88 24" fill="none" xmlns="http://www.w3.org/2000/svg">
<g clip-path="url(#clip0_1023_575)">
<path d="M51.1772 0.692871V3.24806L56.1643 5.17813L51.1772 7.01417V9.64459L59.7187 6.21867V4.09941L51.1772 0.692871Z" fill="#BD00FF"/>
<path d="M80.856 17.0057H84.6019C84.5438 15.5486 83.8751 14.9241 82.7675 14.9241C81.8882 14.9241 81.0861 15.3971 80.856 17.0057ZM82.844 23.3071C79.9583 23.3071 77.9904 21.6038 77.9904 18.3113V18.1226C77.9904 14.8107 80.0728 12.994 82.7473 12.994C85.232 12.994 87.315 14.3748 87.315 17.6491V18.8418H80.8186C80.9336 20.6203 81.6966 21.3018 82.901 21.3018C83.9707 21.3018 84.5438 20.7342 84.736 20.0151H87.315C87.01 21.8882 85.4616 23.3071 82.844 23.3071ZM71.3202 13.2026H74.1098V15.0187C74.7019 13.6938 75.6387 13.0698 77.11 13.0698V15.7943C75.2181 15.7943 74.1098 16.3618 74.1098 18.0087V23.0997H71.3202V13.2026ZM69.2942 23.0997H66.5035V21.642C66.0259 22.5885 65.0897 23.3071 63.5982 23.3071C61.8029 23.3071 60.4835 22.2284 60.4835 19.9017V13.2026H63.2933V19.4852C63.2933 20.6203 63.7513 21.1502 64.7456 21.1502C65.7198 21.1502 66.5035 20.5445 66.5035 19.3148V13.2026H69.2942V23.0997ZM56.8717 10.212V13.2026H58.7826V15.2637H56.8717V19.9576C56.8717 20.6966 57.2152 21.0368 57.8648 21.0368C58.2665 21.0368 58.572 20.9799 58.8396 20.867V23.0233C58.515 23.1185 57.9603 23.2313 57.2722 23.2313C55.0948 23.2313 54.0619 22.2478 54.0619 20.2413V15.2637H52.8961V13.2026H54.0619V11.3472L56.8717 10.212ZM42.8253 13.2026H45.6149V14.6785C46.1126 13.7508 47.1058 12.994 48.6347 12.994C50.4501 12.994 51.6538 14.0727 51.6538 16.4758V23.0997H48.8631V16.8918C48.8631 15.7378 48.3861 15.2267 47.3734 15.2267C46.3986 15.2267 45.6149 15.8136 45.6149 17.0627V23.0997H42.8253V13.2026ZM34.6453 17.0057H38.3906C38.3336 15.5486 37.6644 14.9241 36.5562 14.9241C35.6775 14.9241 34.8748 15.3971 34.6453 17.0057ZM36.6333 23.3071C33.747 23.3071 31.7791 21.6038 31.7791 18.3113V18.1226C31.7791 14.8107 33.8621 12.994 36.5372 12.994C39.0213 12.994 41.1048 14.3748 41.1048 17.6491V18.8418H34.6073C34.7218 20.6203 35.4865 21.3018 36.6897 21.3018C37.76 21.3018 38.3336 20.7342 38.5247 20.0151H41.1048C40.7981 21.8882 39.2508 23.3071 36.6333 23.3071ZM26.1597 23.3071C23.3891 23.3071 21.3826 21.6038 21.3826 18.2543V18.1226C21.3826 14.7731 23.5226 12.994 26.1787 12.994C28.4527 12.994 30.3256 14.1297 30.5552 16.7214H27.8796C27.7075 15.7572 27.2109 15.1327 26.2362 15.1327C25.0508 15.1327 24.2297 16.0592 24.2297 18.0087V18.3113C24.2297 20.3177 24.9559 21.226 26.2558 21.226C27.2109 21.226 27.9175 20.5257 28.0706 19.447H30.6122C30.4212 21.6984 28.8733 23.3071 26.1597 23.3071ZM15.7631 23.3071C12.9925 23.3071 10.9861 21.6038 10.9861 18.2543V18.1226C10.9861 14.7731 13.126 12.994 15.7821 12.994C18.0561 12.994 19.9291 14.1297 20.1587 16.7214H17.483C17.311 15.7572 16.8144 15.1327 15.8397 15.1327C14.6543 15.1327 13.8332 16.0592 13.8332 18.0087V18.3113C13.8332 20.3177 14.5594 21.226 15.8592 21.226C16.8144 21.226 17.521 20.5257 17.6741 19.447H20.2157C20.0246 21.6984 18.4768 23.3071 15.7631 23.3071ZM6.64689 19.8065V18.8606H5.53808C4.16284 18.8606 3.45624 19.239 3.45624 20.1279V20.2225C3.45624 20.9041 3.87686 21.377 4.81248 21.377C5.76824 21.377 6.64689 20.8477 6.64689 19.8065ZM3.9718 23.3071C2.17595 23.3071 0.685059 22.3993 0.685059 20.3923V20.2801C0.685059 17.8377 2.82501 17.0434 5.40516 17.0434H6.64689V16.571C6.64689 15.5863 6.20728 14.9805 5.17557 14.9805C4.23937 14.9805 3.74279 15.5105 3.66569 16.2678H0.990598C1.18164 14.0727 2.93952 12.994 5.30964 12.994C7.71716 12.994 9.43706 14.0158 9.43706 16.4758V23.0997H6.70444V21.9634C6.22626 22.6831 5.30964 23.3071 3.9718 23.3071Z" fill="white"/>
</g>
<defs>
<clipPath id="clip0_1023_575">
<rect width="88" height="24" fill="white"/>
</clipPath>
</defs>
</svg>
