<svg width="456" height="112" viewBox="0 0 456 112" fill="none" xmlns="http://www.w3.org/2000/svg">
<g opacity="0.1">
<path d="M10.6453 87.1158H-2V0H54.9907V6.25294H61.3133V12.4633H67.6793V40.4527H61.3133V46.7057H54.9907V52.9161H61.3133V59.1265H67.6793V87.1158H54.9907V65.3369H48.668V59.1265H42.3453V52.9161H10.6453V87.1158ZM10.6453 40.4527H48.668V34.2423H54.9907V18.6738H48.668V12.4633H10.6453V40.4527Z" fill="white"/>
<path d="M118.261 87.1158H92.9267V80.9054H86.604V74.695H80.2814V62.2317H86.604V56.0213H99.2494V49.8109H124.627V43.5579H118.261V37.3475H99.2494V43.5579H80.2814V37.3475H86.604V31.1371H92.9267V24.9267H124.627V31.1371H130.949V37.3475H137.272V87.1158H124.627V80.9054H118.261V87.1158ZM96.088 74.695H118.261V68.4846H124.627V56.0213H118.261V62.2317H96.088V74.695Z" fill="white"/>
<path d="M162.563 15.5686H149.917V3.14774H162.563V15.5686ZM156.24 112H137.272V99.5367H149.917V24.9267H162.563V105.747H156.24V112Z" fill="white"/>
<path d="M219.553 87.1158H187.853V80.9054H181.531V74.695H175.208V37.3475H181.531V31.1371H187.853V24.9267H219.553V31.1371H225.876V37.3475H232.199V49.8109H219.553V43.5579H213.187V37.3475H194.176V43.5579H187.853V68.4846H194.176V74.695H213.187V68.4846H219.553V62.2317H232.199V74.695H225.876V80.9054H219.553V87.1158Z" fill="white"/>
<path d="M257.489 87.1158H244.844V0H257.489V31.1371H263.812V24.9267H285.985V31.1371H292.351V37.3475H298.673V87.1158H285.985V43.5579H279.662V37.3475H263.812V43.5579H257.489V87.1158Z" fill="white"/>
<path d="M355.707 87.1158H324.007V80.9054H317.685V74.695H311.362V37.3475H317.685V31.1371H324.007V24.9267H355.707V31.1371H362.03V37.3475H368.353V59.1265H324.007V68.4846H330.33V74.695H349.341V68.4846H368.353V74.695H362.03V80.9054H355.707V87.1158ZM324.007 49.8109H355.707V43.5579H349.341V37.3475H330.33V43.5579H324.007V49.8109Z" fill="white"/>
<path d="M393.643 87.1158H380.998V24.9267H393.643V31.1371H399.966V24.9267H415.816V37.3475H399.966V43.5579H393.643V87.1158Z" fill="white"/>
<path d="M457 87.1158H437.989V80.9054H431.666V34.2423H422.182V24.9267H431.666V6.25294H444.355V24.9267H457V34.2423H444.355V74.695H457V87.1158Z" fill="white"/>
</g>
</svg>
