<svg width="454" height="100" viewBox="0 0 454 100" fill="none" xmlns="http://www.w3.org/2000/svg">
<path d="M-2 82.8179V1.48912H25.2832C34.3386 1.48912 41.4033 3.70371 46.4774 8.13288C51.5516 12.4857 54.0886 18.4422 54.0886 26.0023C54.0886 30.0496 53.2299 33.5624 51.5125 36.5407C49.7951 39.5189 47.4142 41.8862 44.3697 43.6426C41.4033 45.3226 38.0466 46.3154 34.2995 46.6209L33.8311 45.0172C40.2324 45.0935 44.9942 46.3536 48.1168 48.7972C51.3174 51.1646 53.1519 55.021 53.6202 60.3666L55.4938 82.8179H36.4072L35.1192 65.7503C34.885 62.4666 34.3386 60.0229 33.4799 58.4192C32.6992 56.8156 31.4502 55.7465 29.7328 55.2119C28.0935 54.6774 25.9077 54.4101 23.1755 54.4101H16.8523V82.8179H-2ZM16.8523 37.9152H24.5806C27.8593 37.9152 30.3573 37.037 32.0747 35.2806C33.7921 33.5242 34.6508 31.0424 34.6508 27.8351C34.6508 24.6277 33.7921 22.184 32.0747 20.504C30.3573 18.7476 27.8593 17.8694 24.5806 17.8694H16.8523V37.9152Z" fill="white"/>
<path d="M75.5884 84.1924C71.7633 84.1924 68.2504 83.5052 65.0498 82.1306C61.8492 80.756 59.3122 78.7705 57.4387 76.1741C55.5651 73.5013 54.6284 70.294 54.6284 66.5521C54.6284 61.3593 56.3458 57.3501 59.7806 54.5246C63.2934 51.6228 67.8601 49.5227 73.4807 48.2245L91.7476 44.3299C91.7476 40.8935 91.084 38.2207 89.7569 36.3116C88.4299 34.3261 86.127 33.3333 82.8483 33.3333C80.038 33.3333 77.8913 34.0588 76.4081 35.5097C74.9249 36.9607 73.9881 38.7553 73.5978 40.8935L55.2138 39.9771C56.3848 33.8679 59.3902 28.9805 64.2302 25.315C69.0701 21.6495 75.12 19.8167 82.3799 19.8167C91.9817 19.8167 98.9294 22.0695 103.223 26.575C107.516 31.0042 109.663 37.3043 109.663 45.4754V65.8648C109.663 67.5449 109.936 68.6903 110.483 69.3013C111.029 69.8358 111.81 70.1031 112.825 70.1031H114.932V82.8179C114.464 82.8942 113.683 83.0088 112.591 83.1615C111.498 83.3142 110.327 83.3906 109.078 83.3906C105.799 83.3906 102.989 82.8179 100.647 81.6724C98.383 80.5269 96.6265 78.8851 95.3775 76.7468C94.1285 74.6086 93.465 72.0886 93.3869 69.1867H95.0262C94.714 72.0122 93.7382 74.5704 92.0988 76.8614C90.4595 79.1523 88.2347 80.9469 85.4244 82.2451C82.6922 83.5433 79.4135 84.1924 75.5884 84.1924ZM79.5697 71.4777C82.1458 71.4777 84.3315 71.0195 86.127 70.1031C87.9225 69.1867 89.2886 67.8121 90.2253 65.9794C91.2402 64.1466 91.7476 61.932 91.7476 59.3356V56.2428L79.5697 58.992C77.1497 59.5265 75.4323 60.3284 74.4175 61.3975C73.4807 62.3902 73.0123 63.8793 73.0123 65.8648C73.0123 67.6212 73.5588 68.9958 74.6517 69.9885C75.7445 70.9813 77.3839 71.4777 79.5697 71.4777Z" fill="white"/>
<path d="M114.418 100V86.3688H131.28C134.793 86.3688 137.369 85.567 139.008 83.9633C140.726 82.3597 141.584 79.8014 141.584 76.2887V21.1913H159.383V76.7468C159.383 84.307 157.158 90.0725 152.708 94.0435C148.259 98.0145 141.701 100 133.036 100H114.418ZM114.77 34.8225V21.1913H150.367V34.8225H114.77ZM141.35 14.3184V0H159.383V14.3184H141.35Z" fill="white"/>
<path d="M193.295 84.1924C187.206 84.1924 181.858 82.8561 177.253 80.1833C172.647 77.4341 169.017 73.6541 166.363 68.8431C163.709 63.9557 162.382 58.3429 162.382 52.0046C162.382 45.6663 163.709 40.0916 166.363 35.2806C169.017 30.3933 172.647 26.6132 177.253 23.9404C181.858 21.1913 187.206 19.8167 193.295 19.8167C198.291 19.8167 202.858 20.8477 206.995 22.9095C211.21 24.895 214.684 27.7205 217.416 31.386C220.149 34.9752 221.827 39.2516 222.451 44.2154L204.77 45.0172C204.068 41.8099 202.74 39.3662 200.789 37.6861C198.837 35.9297 196.378 35.0515 193.412 35.0515C189.509 35.0515 186.464 36.5788 184.278 39.6335C182.093 42.6117 181 46.7354 181 52.0046C181 57.2738 182.093 61.4357 184.278 64.4903C186.464 67.4685 189.509 68.9576 193.412 68.9576C196.378 68.9576 198.837 68.0794 200.789 66.323C202.819 64.4903 204.185 61.8939 204.887 58.5338L222.569 59.4502C221.944 64.3375 220.266 68.6522 217.533 72.394C214.879 76.1359 211.445 79.0378 207.229 81.0997C203.014 83.1615 198.369 84.1924 193.295 84.1924Z" fill="white"/>
<path d="M224.045 82.8179V1.48912H241.961V34.2497L240.556 32.7606C241.648 29.706 243.054 27.2623 244.771 25.4296C246.566 23.5204 248.713 22.1077 251.211 21.1913C253.709 20.2749 256.48 19.8167 259.525 19.8167C263.818 19.8167 267.331 20.7713 270.064 22.6804C272.796 24.5132 274.825 27.1859 276.152 30.6987C277.48 34.1352 278.143 38.2589 278.143 43.0699V82.8179H260.228V46.3918C260.228 41.9626 259.486 38.8698 258.003 37.1134C256.598 35.357 254.646 34.4788 252.148 34.4788C249.26 34.4788 246.84 35.5861 244.888 37.8007C242.936 40.0153 241.961 43.3371 241.961 47.7663V82.8179H224.045Z" fill="white"/>
<path d="M309.596 84.1924C303.741 84.1924 298.511 82.8942 293.905 80.2978C289.377 77.625 285.826 73.8832 283.25 69.0722C280.673 64.2612 279.385 58.572 279.385 52.0046C279.385 45.6663 280.634 40.0916 283.132 35.2806C285.709 30.3933 289.26 26.6132 293.788 23.9404C298.316 21.1913 303.546 19.8167 309.479 19.8167C315.334 19.8167 320.525 21.1913 325.053 23.9404C329.58 26.6132 333.132 30.3933 335.708 35.2806C338.284 40.168 339.572 45.8572 339.572 52.3482V56.5865H297.652C298.043 60.5575 299.331 63.6121 301.516 65.7503C303.78 67.8885 306.63 68.9576 310.064 68.9576C312.64 68.9576 314.826 68.3849 316.622 67.2394C318.495 66.0176 319.783 64.3757 320.486 62.3139L338.167 63.5739C335.903 70.294 332.391 75.4105 327.629 78.9233C322.867 82.436 316.856 84.1924 309.596 84.1924ZM298.004 45.3608H320.369C320.056 41.9244 318.886 39.3662 316.856 37.6861C314.904 35.9297 312.367 35.0515 309.245 35.0515C306.122 35.0515 303.585 35.9297 301.633 37.6861C299.682 39.4425 298.472 42.0008 298.004 45.3608Z" fill="white"/>
<path d="M355.1 82.8179V21.1913H367.981L369.269 37.457L368.215 37.5716C368.839 32.1497 370.401 28.0641 372.899 25.315C375.397 22.5659 379.183 21.1913 384.257 21.1913H398.777V35.1661H385.779C382.813 35.1661 380.393 35.6625 378.519 36.6552C376.646 37.5716 375.241 38.9843 374.304 40.8935C373.445 42.7262 373.016 45.0935 373.016 47.9954V82.8179H355.1ZM340.463 82.8179V69.1867H391.985V82.8179H340.463ZM340.463 34.8225V21.1913H365.99V34.8225H340.463Z" fill="white"/>
<path d="M434.796 82.8179C427.38 82.8179 421.955 81.176 418.52 77.8923C415.085 74.6086 413.368 69.5685 413.368 62.772V6.75831H431.284V60.8247C431.284 63.6502 431.986 65.7503 433.391 67.1249C434.796 68.4994 436.943 69.1867 439.831 69.1867H454V82.8179H434.796ZM396.155 34.8225V21.1913H454V34.8225H396.155Z" fill="white"/>
</svg>
