<svg width="93" height="20" viewBox="0 0 93 20" fill="none" xmlns="http://www.w3.org/2000/svg">
<path d="M3.27734 20H0.425781V0H3.27734V7.86133H13.2773V0H16.1387V20H13.2773V10.7227H3.27734V20ZM21.832 3.57422H18.9805V0.722656H21.832V3.57422ZM21.832 20H18.9805V5.72266H21.832V20ZM37.5254 20H33.2383V18.5742H31.8125V7.86133H29.6738V5.72266H31.8125V1.43555H34.6738V5.72266H37.5254V7.86133H34.6738V17.1484H37.5254V20ZM42.5352 20H39.6836V0H42.5352V7.14844H43.9609V5.72266H48.9609V7.14844H50.3965V8.57422H51.8223V20H48.9609V10H47.5352V8.57422H43.9609V10H42.5352V20ZM64.6836 20H57.5352V18.5742H56.1094V17.1484H54.6836V8.57422H56.1094V7.14844H57.5352V5.72266H64.6836V7.14844H66.1094V8.57422H67.5352V13.5742H57.5352V15.7227H58.9609V17.1484H63.248V15.7227H67.5352V17.1484H66.1094V18.5742H64.6836V20ZM57.5352 11.4355H64.6836V10H63.248V8.57422H58.9609V10H57.5352V11.4355ZM73.2383 20H70.3867V5.72266H73.2383V7.14844H74.6641V5.72266H78.2383V8.57422H74.6641V10H73.2383V20ZM89.6836 20H82.5352V18.5742H81.1094V17.1484H79.6836V8.57422H81.1094V7.14844H82.5352V5.72266H89.6836V7.14844H91.1094V8.57422H92.5352V13.5742H82.5352V15.7227H83.9609V17.1484H88.248V15.7227H92.5352V17.1484H91.1094V18.5742H89.6836V20ZM82.5352 11.4355H89.6836V10H88.248V8.57422H83.9609V10H82.5352V11.4355Z" fill="white"/>
</svg>
