<svg width="172" height="21" viewBox="0 0 172 21" fill="none" xmlns="http://www.w3.org/2000/svg">
<path d="M70.2443 19.8806V11.521C70.2443 9.13254 68.9411 8.04688 66.7692 8.04688C64.923 8.04688 63.4027 9.13254 62.7511 10.1096C62.3167 8.69827 61.1221 8.04688 59.4932 8.04688C57.647 8.04688 56.2353 9.02397 55.6923 9.78394V8.37257H52V19.8806H55.6923V12.3895C56.1267 11.9553 56.7783 11.3039 57.7556 11.3039C58.8416 11.3039 59.276 11.9553 59.276 12.8238V19.8806H62.9683V12.3895C63.2941 11.9553 64.0543 11.3039 65.0316 11.3039C66.1176 11.3039 66.552 11.9553 66.552 12.8238V19.8806H70.2443Z" fill="#FFF"/>
<path d="M77.9549 20.0969C81.973 20.0969 84.2535 17.2742 84.2535 14.0172C84.2535 10.7602 81.8644 7.9375 77.9549 7.9375C74.0454 7.9375 71.6563 10.7602 71.6563 14.0172C71.6562 17.2742 74.0454 20.0969 77.9549 20.0969ZM77.9549 16.8399C76.3259 16.8399 75.4571 15.5371 75.4571 14.0172C75.4571 12.4973 76.3259 11.1945 77.9549 11.1945C79.5838 11.1945 80.4526 12.4973 80.4526 14.0172C80.4526 15.6457 79.5838 16.8399 77.9549 16.8399Z" fill="#FFF"/>
<path d="M92.6151 19.8791L97.1762 8.37109H93.2667L90.6603 15.645L88.054 8.37109H84.1445L88.7056 19.8791H92.6151Z" fill="#FFF"/>
<path d="M97.0664 14.1247C97.0664 17.9245 99.7813 20.2044 103.365 20.2044C105.103 20.2044 107.057 19.6616 108.143 18.6845L106.623 16.4046C105.971 16.9474 104.885 17.3817 103.799 17.3817C102.062 17.3817 101.084 16.4046 100.867 15.3189H109.121V14.559C109.121 10.6506 106.623 8.15354 103.256 8.15354C99.5641 8.04497 97.0664 10.7591 97.0664 14.1247ZM103.148 10.8677C104.885 10.8677 105.428 12.0619 105.537 12.8219H100.759C100.976 12.0619 101.519 10.8677 103.148 10.8677Z" fill="#FFF"/>
<path d="M109.664 14.1258C109.664 17.7085 112.379 20.2055 115.963 20.2055C118.46 20.2055 119.981 19.1198 120.741 18.0342L118.352 15.7543C117.917 16.4057 117.157 16.8399 116.18 16.8399C114.66 16.8399 113.465 15.7543 113.465 14.0172C113.465 12.2802 114.66 11.1945 116.18 11.1945C117.157 11.1945 117.917 11.6288 118.352 12.2802L120.741 10.1088C120.089 9.13173 118.46 7.9375 115.963 7.9375C112.379 8.04607 109.664 10.4345 109.664 14.1258Z" fill="#FFF"/>
<path d="M125.52 19.8792V3.91992H121.828V19.8792H125.52Z" fill="#FFF"/>
<path d="M133.232 20.0969C137.25 20.0969 139.531 17.2742 139.531 14.0172C139.531 10.7602 137.142 7.9375 133.232 7.9375C129.323 7.9375 126.934 10.7602 126.934 14.0172C126.934 17.2742 129.323 20.0969 133.232 20.0969ZM133.232 16.8399C131.603 16.8399 130.734 15.5371 130.734 14.0172C130.734 12.4973 131.603 11.1945 133.232 11.1945C134.861 11.1945 135.73 12.4973 135.73 14.0172C135.839 15.6457 134.861 16.8399 133.232 16.8399Z" fill="#FFF"/>
<path d="M140.07 18.3607C141.265 19.4464 143.437 20.0978 145.5 20.0978C148.867 20.0978 150.713 18.4693 150.713 16.2979C150.713 13.2581 147.781 12.7152 145.826 12.3895C144.631 12.1724 143.98 11.9553 143.98 11.4124C143.98 10.8696 144.631 10.6525 145.392 10.6525C146.803 10.6525 148.106 11.1953 148.758 11.9553L150.17 9.56681C148.975 8.69827 147.238 8.04688 145.392 8.04688C142.242 8.04688 140.396 9.78394 140.396 11.8467C140.396 14.778 143.22 15.2123 145.174 15.538C146.369 15.7551 147.129 15.9722 147.129 16.5151C147.129 17.0579 146.695 17.3836 145.609 17.3836C144.197 17.3836 142.459 16.6236 141.591 15.8637L140.07 18.3607Z" fill="#FFF"/>
<path d="M151.367 14.1247C151.367 17.9245 154.082 20.2044 157.666 20.2044C159.403 20.2044 161.358 19.6616 162.444 18.6845L160.924 16.4046C160.272 16.9474 159.186 17.3817 158.1 17.3817C156.363 17.3817 155.385 16.4046 155.168 15.3189H163.421V14.559C163.421 10.6506 160.924 8.15354 157.557 8.15354C153.865 8.04497 151.367 10.7591 151.367 14.1247ZM157.449 10.8677C159.186 10.8677 159.729 12.0619 159.838 12.8219H155.059C155.277 12.0619 155.928 10.8677 157.449 10.8677Z" fill="#FFF"/>
<path d="M168.415 19.8806V12.6067C168.849 11.9553 170.152 11.521 171.13 11.521C171.564 11.521 171.781 11.521 171.999 11.6296V8.04688C170.587 8.04688 169.175 8.80684 168.415 9.78394V8.37257H164.723V19.8806H168.415Z" fill="#FFF"/>
<path d="M0 19.9191L13.7144 0H19.7327L2.21036 19.9191H0ZM37.7803 0H30.9231L15.9977 19.9191H22.089L37.7803 0ZM40.37 13.6343L32.6009 19.9191H39.7572L48.0588 13.6343H40.37Z" fill="#1A2BE6"/>
<path d="M22.0894 19.9191H15.9982L13.7148 0H19.7331L22.0894 19.9191ZM39.765 19.9191L37.7807 0H30.9235L32.6014 19.9191H39.765Z" fill="#1A2BE6"/>
</svg>
