<svg width="49" height="24" viewBox="0 0 49 24" fill="none" xmlns="http://www.w3.org/2000/svg">
<g clip-path="url(#clip0_1023_554)">
<path d="M36.3569 10.0942C34.5819 10.3765 33.7299 11.6471 33.7299 13.9059C33.7299 16.1648 34.9369 17.7177 36.7119 17.7177C38.4869 17.7177 38.3449 17.4353 39.9779 16.6589V18.4942C38.0609 19.4118 36.9249 19.6236 35.2919 19.6236C33.6589 19.6236 32.3809 19.2 31.4579 18.2118C30.4639 17.2236 29.9669 15.8824 29.9669 14.4706C29.9669 11.2236 32.3809 9.03534 35.9309 9.03534C39.4809 9.03534 39.9069 10.0942 39.9069 11.6471C39.9069 13.2 39.1259 13.3412 38.0609 13.3412C36.9959 13.3412 36.9959 13.2 36.4279 12.8471V10.0942H36.3569ZM27.7659 14.4C29.3279 12.4236 29.8959 11.6471 29.8959 10.6589C29.8959 9.67064 29.1149 8.89417 28.1209 8.89417C27.1269 8.89417 26.9139 9.17652 26.6299 9.52946V13.553L24.0739 16.9412V9.17652H21.6599L17.6129 15.8824V9.17652H16.1929L12.5009 10.0942V11.0118L14.4889 11.2236V19.4118H17.1159L21.0209 13.0589V19.4118H23.8609L27.8369 14.4H27.7659ZM4.7619 11.2942C5.3299 11.2942 5.6849 11.153 5.9689 11.153C7.6729 11.153 8.5959 12.2824 8.5959 14.4C8.5959 16.5177 7.4599 18.2118 5.4009 18.2118C3.3419 18.2118 5.1169 18.2118 4.8329 18.2118V11.3648L4.7619 11.2942ZM4.7619 19.3412C5.4009 19.3412 6.1109 19.3412 6.4659 19.3412C9.9449 19.3412 12.1459 17.153 12.1459 13.8353C12.1459 10.5177 10.5129 8.96475 8.2409 8.96475C5.9689 8.96475 6.6079 9.17652 4.7619 10.3059V8.96475H3.6969L-0.350098 10.1648V11.153H1.3539V22.5883L-0.137098 22.9412V23.8589H6.4659V22.9412L4.7619 22.5883V19.2706V19.3412Z" fill="white"/>
<path d="M34.5111 6.21176H23.5061L25.3521 3.10588H36.3571L34.5111 6.21176ZM49.2791 0H38.2741L36.4281 3.10588H47.4331L49.2791 0Z" fill="#FD5108"/>
</g>
<defs>
<clipPath id="clip0_1023_554">
<rect width="49" height="24" fill="white"/>
</clipPath>
</defs>
</svg>
