<svg width="93" height="92" viewBox="0 0 93 92" fill="none" xmlns="http://www.w3.org/2000/svg">
<path d="M92.8919 42.7031C91.2509 68.1082 75.0804 92 48.479 92C21.8775 92 0 67.8388 0 41.1331C0 27.5609 6.2761 16.9954 15.3256 10.0478C24.0826 3.32477 35.3967 0 48.479 0C75.0804 0 94.6357 15.7072 92.8919 42.7031Z" fill="white"/>
<path d="M26.7313 57.3755V34.1028H36.0495C37.7616 34.1028 39.1897 34.3565 40.3336 34.8641C41.4776 35.3717 42.3374 36.0762 42.9132 36.9778C43.4889 37.8717 43.7768 38.902 43.7768 40.0687C43.7768 40.9778 43.595 41.777 43.2313 42.4664C42.8677 43.1482 42.3677 43.7088 41.7313 44.1482C41.1026 44.58 40.3829 44.8869 39.5723 45.0687V45.2959C40.4586 45.3338 41.2882 45.5838 42.0609 46.0459C42.8412 46.5081 43.4738 47.1558 43.9586 47.9891C44.4435 48.8149 44.6859 49.7997 44.6859 50.9437C44.6859 52.1785 44.3791 53.2808 43.7654 54.2505C43.1594 55.2126 42.2616 55.974 41.0723 56.5346C39.8829 57.0952 38.417 57.3755 36.6745 57.3755H26.7313ZM31.6518 53.3528H35.6632C37.0344 53.3528 38.0344 53.0914 38.6632 52.5687C39.292 52.0384 39.6063 51.3338 39.6063 50.455C39.6063 49.8111 39.451 49.2429 39.1404 48.7505C38.8298 48.2581 38.3866 47.8717 37.8109 47.5914C37.2427 47.3111 36.5647 47.1709 35.7768 47.1709H31.6518V53.3528ZM31.6518 43.8414H35.2995C35.9738 43.8414 36.5723 43.724 37.095 43.4891C37.6253 43.2467 38.042 42.9058 38.345 42.4664C38.6556 42.027 38.8109 41.5005 38.8109 40.8869C38.8109 40.0459 38.5116 39.3679 37.9132 38.8528C37.3223 38.3376 36.4813 38.08 35.3904 38.08H31.6518V43.8414ZM47.8876 57.3755V34.1028H57.0694C58.827 34.1028 60.327 34.4172 61.5694 35.0459C62.8194 35.6672 63.7702 36.5497 64.4217 37.6937C65.0808 38.83 65.4103 40.1672 65.4103 41.705C65.4103 43.2505 65.077 44.58 64.4103 45.6937C63.7437 46.7997 62.7777 47.6482 61.5126 48.2391C60.255 48.83 58.7323 49.1255 56.9444 49.1255H50.7967V45.1709H56.149C57.0884 45.1709 57.8687 45.0422 58.4899 44.7846C59.1111 44.527 59.5732 44.1406 59.8762 43.6255C60.1868 43.1103 60.3421 42.4702 60.3421 41.705C60.3421 40.9323 60.1868 40.2808 59.8762 39.7505C59.5732 39.2202 59.1073 38.8187 58.4785 38.5459C57.8573 38.2656 57.0732 38.1255 56.1262 38.1255H52.8081V57.3755H47.8876ZM60.4558 46.7846L66.2399 57.3755H60.8081L55.149 46.7846H60.4558Z" fill="#001E26"/>
</svg>
