<svg width="51" height="50" viewBox="0 0 51 50" fill="none" xmlns="http://www.w3.org/2000/svg">
<path d="M50.9407 23.2082C50.0408 37.0153 41.1731 50 26.5852 50C11.9973 50 0 36.8689 0 22.3549C0 14.9787 3.44173 9.23662 8.40436 5.46075C13.2066 1.80694 19.4111 0 26.5852 0C41.1731 0 51.897 8.53655 50.9407 23.2082Z" fill="white"/>
<path d="M14.6591 31.1824V18.5342H19.7691C20.708 18.5342 21.4911 18.6721 22.1184 18.948C22.7458 19.2238 23.2173 19.6067 23.533 20.0967C23.8488 20.5825 24.0066 21.1425 24.0066 21.7765C24.0066 22.2706 23.9069 22.705 23.7075 23.0796C23.5081 23.4502 23.2339 23.7549 22.8849 23.9937C22.5401 24.2283 22.1454 24.3951 21.7009 24.4939V24.6174C22.187 24.638 22.6419 24.7739 23.0656 25.025C23.4936 25.2762 23.8404 25.6282 24.1063 26.0811C24.3722 26.5299 24.5052 27.0651 24.5052 27.6868C24.5052 28.358 24.3369 28.957 24.0004 29.484C23.668 30.0069 23.1757 30.4207 22.5235 30.7254C21.8712 31.0301 21.0674 31.1824 20.1118 31.1824H14.6591ZM17.3574 28.9961H19.5572C20.3092 28.9961 20.8576 28.8541 21.2024 28.57C21.5472 28.2818 21.7196 27.8989 21.7196 27.4213C21.7196 27.0713 21.6344 26.7625 21.4641 26.4949C21.2938 26.2273 21.0507 26.0173 20.735 25.865C20.4234 25.7126 20.0516 25.6365 19.6195 25.6365H17.3574V28.9961ZM17.3574 23.8269H19.3578C19.7275 23.8269 20.0557 23.7631 20.3424 23.6355C20.6332 23.5037 20.8617 23.3184 21.0279 23.0796C21.1982 22.8408 21.2834 22.5547 21.2834 22.2212C21.2834 21.7642 21.1193 21.3957 20.7911 21.1157C20.467 20.8357 20.0059 20.6957 19.4077 20.6957H17.3574V23.8269Z" fill="#001E26"/>
<path d="M26.2609 31.1824V18.5342H31.2961C32.26 18.5342 33.0825 18.705 33.7639 19.0468C34.4494 19.3844 34.9707 19.8641 35.328 20.4858C35.6895 21.1033 35.8702 21.83 35.8702 22.6658C35.8702 23.5058 35.6874 24.2283 35.3218 24.8336C34.9562 25.4347 34.4265 25.8958 33.7327 26.217C33.0431 26.5381 32.208 26.6987 31.2276 26.6987H27.8562V24.5495H30.7914C31.3065 24.5495 31.7344 24.4795 32.0751 24.3395C32.4157 24.1995 32.6692 23.9895 32.8353 23.7096C33.0057 23.4296 33.0908 23.0817 33.0908 22.6658C33.0908 22.2459 33.0057 21.8918 32.8353 21.6036C32.6692 21.3154 32.4137 21.0972 32.0689 20.949C31.7282 20.7966 31.2982 20.7204 30.7789 20.7204H28.9592V31.1824H26.2609ZM33.1532 25.4265L36.3251 31.1824H33.3463L30.243 25.4265H33.1532Z" fill="#001E26"/>
</svg>
