<svg width="89" height="24" viewBox="0 0 89 24" fill="none" xmlns="http://www.w3.org/2000/svg">
<g clip-path="url(#clip0_1023_561)">
<path d="M35.9494 0H12.002V24H35.9494V0Z" fill="white"/>
<path d="M47.9232 12.0282L35.9495 0V24.0282L47.9232 12.0282Z" fill="#DB0011"/>
<path d="M23.9757 12.0282L35.9494 0H12.002L23.9757 12.0282Z" fill="#DB0011"/>
<path d="M0 12.0282L12.0019 24.0282V0L0 12.0282Z" fill="#DB0011"/>
<path d="M23.9757 12.0283L12.002 24.0283H35.9494L23.9757 12.0283Z" fill="#DB0011"/>
<path d="M58.4319 12.7341H54.0932V17.0259H51.9238V6.97412H54.0932V11.0965H58.4319V6.97412H60.6013V17.0259H58.4319V12.7341Z" fill="white"/>
<path d="M65.8414 17.2235C63.672 17.2235 61.8971 16.3482 61.8689 13.9482H64.0383C64.0664 15.0212 64.6862 15.6706 65.8695 15.6706C66.7429 15.6706 67.7572 15.2188 67.7572 14.2306C67.7572 13.44 67.081 13.2141 65.9541 12.8753L65.2215 12.6776C63.6438 12.2259 62.0661 11.6047 62.0661 9.79763C62.0661 7.56704 64.1509 6.80469 66.0386 6.80469C67.9825 6.80469 69.6729 7.48233 69.7011 9.71292H67.5318C67.4472 8.80939 66.9119 8.27292 65.8977 8.27292C65.0807 8.27292 64.2918 8.69645 64.2918 9.59998C64.2918 10.3341 64.968 10.56 66.3767 11.0117L67.2219 11.2659C68.9404 11.8023 70.0392 12.3953 70.0392 14.0894C70.011 16.3482 67.8135 17.2235 65.8414 17.2235Z" fill="white"/>
<path d="M71.2507 7.00237H74.7442C75.3922 6.97414 76.0684 7.00237 76.7164 7.11531C77.9278 7.39767 78.8576 8.18825 78.8576 9.54355C78.8576 10.8424 78.0405 11.4918 76.8573 11.8024C78.2096 12.0565 79.2238 12.7341 79.2238 14.2306C79.2238 16.5177 76.9699 17.0259 75.2232 17.0259H71.2789L71.2507 7.00237ZM74.7442 11.1812C75.7021 11.1812 76.6882 10.9835 76.6882 9.8259C76.6882 8.78119 75.7867 8.49884 74.8851 8.49884H73.3637V11.1812H74.7442ZM74.9415 15.5294C75.9557 15.5294 76.9418 15.3035 76.9418 14.0612C76.9418 12.8188 76.0966 12.593 75.0542 12.593H73.3356V15.5294H74.9415Z" fill="white"/>
<path d="M84.8584 17.2235C81.6185 17.2235 80.1816 15.1624 80.1816 12.0847C80.1816 9.00708 81.7875 6.77649 84.9711 6.77649C86.9714 6.77649 88.9154 7.68002 88.9718 9.93884H86.7179C86.6052 8.92237 85.929 8.41414 84.9711 8.41414C82.999 8.41414 82.4073 10.5318 82.4073 12.1412C82.4073 13.7506 82.999 15.6141 84.8866 15.6141C85.8727 15.6141 86.6052 15.0777 86.7461 14.0612H88.9999C88.7745 16.3765 86.9433 17.2235 84.8584 17.2235Z" fill="white"/>
</g>
<defs>
<clipPath id="clip0_1023_561">
<rect width="89" height="24" fill="white"/>
</clipPath>
</defs>
</svg>
